<svg width="252" height="252" viewBox="0 0 252 252" fill="none" xmlns="http://www.w3.org/2000/svg">
<rect width="252" height="252" rx="126" fill="#10B981"/>
<path d="M68.5 111H151V126H68.5V111ZM68.5 96H151V81H68.5V96ZM68.5 156H121V141H68.5V156ZM181.075 132.525L186.4 127.2C187.094 126.505 187.918 125.953 188.825 125.577C189.733 125.2 190.705 125.007 191.687 125.007C192.67 125.007 193.642 125.2 194.55 125.577C195.457 125.953 196.281 126.505 196.975 127.2L202.3 132.525C205.225 135.45 205.225 140.175 202.3 143.1L196.975 148.425L181.075 132.525ZM175.75 137.85L136 177.6V193.5H151.9L191.65 153.75L175.75 137.85Z" fill="white"/>
</svg>
