<svg width="252" height="252" viewBox="0 0 252 252" fill="none" xmlns="http://www.w3.org/2000/svg">
<rect width="252" height="252" rx="126" fill="#3A4764"/>
<path d="M157.579 104.947H136.526M147.053 94.4211V115.474M157.579 154.947H136.526M157.579 139.158H136.526M115.474 154.947L106.263 145.737M106.263 145.737L97.0526 136.526M106.263 145.737L115.474 136.526M106.263 145.737L97.0526 154.947M115.474 104.947H94.4211M176 131V121C176 99.7895 176 89.1789 168.679 82.5895C161.358 76 149.574 76 126 76C102.432 76 90.6421 76 83.3211 82.5895C76 89.1789 76 99.7895 76 121V131C76 152.211 76 162.821 83.3211 169.411C90.6421 176 102.426 176 126 176C149.568 176 161.358 176 168.679 169.411C176 162.821 176 152.211 176 131Z" stroke="white" stroke-width="8" stroke-linecap="round" stroke-linejoin="round"/>
</svg>
