<svg width="252" height="252" viewBox="0 0 252 252" fill="none" xmlns="http://www.w3.org/2000/svg">
<rect width="252" height="252" rx="126" fill="#06B6D4"/>
<path d="M82 93H71V170C71 176.05 75.95 181 82 181H159V170H82V93ZM170 71H104C97.95 71 93 75.95 93 82V148C93 154.05 97.95 159 104 159H170C176.05 159 181 154.05 181 148V82C181 75.95 176.05 71 170 71ZM170 148H104V82H170V148ZM134.305 115.88C136.56 111.865 140.795 109.5 143.27 105.98C145.91 102.24 144.425 95.31 137 95.31C132.16 95.31 129.74 98.995 128.75 102.075L121.215 98.94C123.305 92.78 128.86 87.5 136.945 87.5C143.71 87.5 148.385 90.58 150.75 94.43C152.785 97.73 153.94 103.945 150.805 108.565C147.34 113.68 144.04 115.22 142.225 118.52C141.51 119.84 141.235 120.72 141.235 125.01H132.875C132.93 122.755 132.545 119.07 134.305 115.88ZM131.225 136.725C131.225 133.48 133.81 131.005 137 131.005C140.245 131.005 142.72 133.48 142.72 136.725C142.72 139.915 140.3 142.5 137 142.5C133.81 142.5 131.225 139.915 131.225 136.725Z" fill="white"/>
</svg>
