<svg width="22" height="25" viewBox="0 0 22 25" fill="none" xmlns="http://www.w3.org/2000/svg">
<path d="M4.06223 0.876953C4.77895 0.876953 5.49567 0.876953 6.23411 0.876953C6.23411 3.69066 6.23411 6.50437 6.23411 9.40334C7.01719 9.40334 7.80028 9.40334 8.60709 9.40334C8.4302 9.63918 8.12445 9.92618 8.12445 9.92618C7.94076 10.1388 7.41322 10.676 7.41322 10.676L6.87763 11.2534C6.87763 11.2534 6.64106 11.5159 6.61243 11.5475C6.51565 11.6154 6.51565 11.6154 6.23411 11.6154C6.23411 12.2392 6.23411 12.863 6.23411 13.5057C10.0832 13.5057 13.9322 13.5057 17.8979 13.5057C17.9639 15.5301 17.9639 15.5301 18.0312 17.5954C18.0506 18.0169 18.07 18.4385 18.09 18.8728C18.0989 19.2142 18.1064 19.5545 18.1061 19.8959C18.1061 19.9401 18.1062 19.9843 18.1063 20.0299C18.1032 21.2189 17.9873 22.1387 17.1278 23.0113C16.0232 24.0832 16.0232 24.0832 15.726 24.0832C15.726 21.3226 15.726 18.562 15.726 15.7177C12.607 15.7177 9.48791 15.7177 6.27433 15.7177C6.27433 18.4916 6.27433 21.2655 6.27433 24.1234C4.2038 24.1234 2.13327 24.1234 0 24.1234C0 16.4654 0 8.80729 0 0.917172C0.859576 1.34695 1.88452 2.17702 2.20781 3.11252C2.54267 4.3006 2.41513 5.6565 2.3801 6.87527C2.36549 7.39771 2.36268 7.92004 2.3604 8.44266C2.35603 9.3741 2.34275 10.3052 2.32359 11.2364C2.30504 12.1395 2.29084 13.0425 2.28235 13.9457C2.28209 13.9737 2.28182 14.0016 2.28155 14.0305C2.2789 14.3115 2.27633 14.5925 2.27383 14.8736C2.25293 17.2198 2.21697 19.5655 2.17188 21.9114C2.7957 21.9114 3.41951 21.9114 4.06223 21.9114C4.06223 14.97 4.06223 8.02866 4.06223 0.876953Z" fill="#CDD4CC"/>
<path d="M15.7263 0.876953C17.7968 0.876953 19.8673 0.876953 22.0006 0.876953C22.0006 8.54829 22.0006 16.2196 22.0006 24.1234C21.2706 24.1234 20.5406 24.1234 19.7885 24.1234C19.7885 17.1688 19.7885 10.2141 19.7885 3.04877C19.1647 3.04877 18.5409 3.04877 17.8982 3.04877C17.8982 5.87575 17.8982 8.70272 17.8982 11.6154C14.8455 11.6154 9.55146 11.6154 6.40625 11.6154C6.69013 11.2842 6.70192 10.8182 7 10.5C7.1487 10.3412 7.35314 10.1605 7.5 10C7.53414 9.9642 6.96483 10.0369 7 10C7.07929 9.91416 7.43623 10.1005 7.5 10C7.63243 9.801 8.04626 9.40334 8.35404 9.40334C8.70026 9.40334 11.4727 9.35038 11.7343 9.35038C11.8984 9.35038 11.9879 9.3535 12.1147 9.35387C12.484 9.3566 12.8533 9.3639 13.2226 9.37066C14.0488 9.38144 14.875 9.39223 15.7263 9.40334C15.7263 6.58963 15.7263 3.77592 15.7263 0.876953Z" fill="#CDD4CC"/>
</svg>
